# xmcd
#
# Track frame offsets: 
#        150
#        25924
#        69814
#        90394
#        105868
#        135597
#        161676
#        181680
#        204754
#        233470
#        260153
#        297135
#
# Disc length: 4194 seconds
#
# Revision: 0
# Processed by: cddbd v1.5.1PL2 Copyright (c) Steve Scherf et al.
# Submitted via: ExactAudioCopy v0.95b3
#
DISCID=8b10600c
DTITLE=Cream - Reunion 2005 CD1
DYEAR=2005
DGENRE=Blues
TTITLE0=I'm So Glad
TTITLE1=Spoonful
TTITLE2=Outside Woman Blues
TTITLE3=Pressed Rat and Warthog
TTITLE4=Sleepy Time Time
TTITLE5=Nsu
TTITLE6=Badge
TTITLE7=Politician
TTITLE8=Sweet Wine
TTITLE9=Rollin' and Tumblin'
TTITLE10=Stormy Monday
TTITLE11=Deserted Cities of the Heart
EXTD=
EXTT0=
EXTT1=
EXTT2=
EXTT3=
EXTT4=
EXTT5=
EXTT6=
EXTT7=
EXTT8=
EXTT9=
EXTT10=
EXTT11=
PLAYORDER=
